<svg width="384" height="456" viewBox="0 0 384 456" fill="none" xmlns="http://www.w3.org/2000/svg">
<path d="M1.35828 175.329C8.85122 276.562 57.8312 408.613 161.695 444.155C186.843 452.759 213.532 455.149 240.237 455.49C276.076 455.915 314.212 451.915 342.568 430.204C368.768 410.003 382.891 376.55 383.421 343.493C383.952 310.437 371.927 278.046 353.669 250.504C326.872 209.901 286.774 179.081 260.722 137.871C235.036 97.3303 221.775 45.8386 181.746 19.3277C80.0864 -48.1173 -5.27014 85.6153 1.35828 175.329ZM199.637 164.097C207.821 191.67 196.388 224.494 212.444 248.334C225.852 268.254 255.524 276.518 260.927 299.889C265.195 318.508 250.081 337.104 232.063 343.785C207.523 352.911 179.025 344.953 158.474 328.784C137.923 312.615 124.146 289.317 113.37 265.467C94.1909 223.036 52.7235 148.831 121.683 124.465C152.622 113.62 190.466 132.887 199.741 164.099L199.637 164.097Z" fill="#F7ECE2"/>
</svg>
