<svg width="653" height="540" viewBox="0 0 653 540" fill="none" xmlns="http://www.w3.org/2000/svg">
<path d="M257.038 171.584C258.763 138.632 264.904 106.06 275.295 74.739C289.025 35.4382 325.588 -46.8326 347.969 34.8851C358.581 73.8341 360.593 117.005 359.587 157.16C411.536 106.592 477.711 73.0994 549.244 61.1693C555.581 60.1139 563.025 59.6113 567.4 64.2852C590.485 88.8608 486.176 167.362 469.126 178.921C530.535 180.379 594.307 187.465 646.562 219.73C649.58 221.64 652.899 224.102 653 227.67C652.851 229.141 652.394 230.563 651.657 231.845C650.92 233.127 649.921 234.239 648.725 235.108C628.608 253.703 600.141 260.237 572.832 262.649C545.522 265.062 517.509 263.704 490.954 269.735C527.705 283.427 561.034 304.95 588.624 332.808C602.153 346.478 614.877 363.414 614.475 382.613C594.76 392.061 571.474 385.879 550.552 379.597L429.847 343.311C441.918 369.143 454.089 395.377 458.816 423.722C463.544 452.067 459.973 482.573 442.873 505.39C440.79 508.772 437.614 511.344 433.871 512.677C426.075 514.738 419.285 507.3 414.809 500.616C389.647 463.223 367.9 423.645 349.83 382.361C338.614 420.657 327.399 459.053 311.104 495.389C302.001 515.491 287.667 537.705 265.538 539.012C260.547 539.525 255.541 538.203 251.455 535.293C245.42 530.267 244.113 522.075 243.308 514.487C237.61 461.233 236.785 407.571 240.844 354.167L115.109 436.689C104.045 443.926 92.5275 451.364 79.5015 453.525C66.4754 455.686 51.2868 450.962 45.2012 439.202C36.7519 422.768 49.4259 403.519 62.5023 390.402C105.352 347.332 159.116 317.128 212.176 287.426C175.311 280.239 138.446 273.002 101.882 264.459C71.1528 257.322 39.5683 248.728 15.1759 228.726C3.30663 219.027 -6.29946 199.929 5.1172 189.676C7.76658 187.465 10.8015 185.762 14.0695 184.651C80.4571 159.522 154.59 183.193 220.274 210.332C189.333 173.653 161.254 134.657 136.283 93.686C129.745 82.9813 123.257 71.5729 122.704 59.0589C122.243 54.0906 123.388 49.1052 125.973 44.8358C128.169 42.0749 130.929 39.8134 134.068 38.2016C137.207 36.5898 140.654 35.6646 144.179 35.4881C169.577 32.6738 192.461 50.5651 209.561 69.914C231.77 95.1662 249.433 124.073 261.766 155.351" fill="#F3AF31"/>
<path d="M367.583 215.609C373.407 214.387 379.452 214.752 385.086 216.665C394.038 220.686 397.508 231.742 399.118 241.14C401.185 253.761 401.726 266.585 400.727 279.335C400.68 282.166 399.992 284.95 398.715 287.477C395.785 291.267 391.559 293.845 386.846 294.714C354.366 304.726 320.795 310.783 286.862 312.756C281.204 313.532 275.44 312.857 270.114 310.796C261.564 306.725 257.692 296.724 255.58 287.527C253.013 276.453 251.714 265.123 251.707 253.755C251.505 249.62 252.191 245.49 253.719 241.643C260.458 227.521 283.09 228.325 296.267 226.566C320.056 222.646 343.694 218.524 367.583 215.609Z" fill="#F7ECE2"/>
</svg>
