<svg width="667" height="641" viewBox="0 0 667 641" fill="none" xmlns="http://www.w3.org/2000/svg">
<path d="M157.178 192.24C154.761 213.623 162.53 234.305 171.36 253.706C180.484 274.799 190.91 295.305 202.577 315.106C223.752 349.444 253.548 381.064 294.713 389.181C308.328 391.535 322.28 391.097 335.721 387.891C349.161 384.686 361.81 378.782 372.897 370.536C451.178 314.806 435.397 199.056 396.899 124.683C391.002 113.26 384.391 102.221 377.103 91.6311C360.323 67.4078 319.711 50.108 305.223 87.11C297.785 106.17 305.947 123.292 314.992 139.957C328.155 164.422 356.905 205.646 332.619 231.8C329.932 234.635 326.864 237.083 323.503 239.072C284.112 263.222 263.875 205.376 253.982 179.265C247.386 161.858 234.207 141.193 214.419 137.326C188.093 132.145 168.219 155.405 160.615 177.925C158.941 182.554 157.788 187.355 157.178 192.24Z" fill="#ECC889"/>
<path d="M69.1974 222.452C60.6119 227.651 53.2285 234.615 47.536 242.882C41.8435 251.149 37.9717 260.53 36.1768 270.406C32.005 295.949 49.7311 319.552 61.7086 340.409C73.686 361.265 86.8172 383.509 100.675 404.485C128.021 446.057 159.952 485.741 200.947 514.656C216.169 525.416 232.536 534.457 249.748 541.616C276.578 552.655 305.385 558.085 334.393 557.572C380.521 556.366 425.308 541.807 463.328 515.659C484.894 500.994 504.259 483.33 520.839 463.199C552.572 426.183 571.398 379.845 574.473 331.184C575.854 295.63 567.86 260.623 557.786 226.736C547.713 192.85 537.243 159.138 526.609 125.363C519.542 103.356 514.085 79.0132 499.9 60.2138C492.895 51.3816 482.981 45.3234 471.925 43.1186C460.87 40.9139 449.391 42.7059 439.534 48.1752C404.719 66.581 419.426 108.514 431.578 136.676C447.534 172.843 462.04 209.718 469.118 248.787C477.36 294.181 473.121 341.831 443.477 379.017C419.738 407.673 386.084 426.345 349.207 431.32C312.33 436.295 274.931 427.21 244.445 405.87C212.417 383.159 191.82 348.903 175.471 313.993C167.629 297.136 160.466 279.979 153.304 262.822C146.142 245.665 140.138 225.763 126.241 211.915C111.473 197.166 88.9463 210.421 74.2643 219.201C72.4303 220.416 70.8296 221.393 69.1974 222.452Z" fill="#ECC889"/>
</svg>
