<svg width="448" height="545" viewBox="0 0 448 545" fill="none" xmlns="http://www.w3.org/2000/svg">
<path d="M21.8532 151.066C21.8532 156.905 26.5867 161.638 32.4256 161.638V161.638C38.2646 161.638 42.998 156.905 42.998 151.066V13.5473C42.998 7.70835 47.7314 2.97493 53.5704 2.97493V2.97493C59.4093 2.97493 64.1427 7.70835 64.1427 13.5473V335.115C64.1427 340.954 59.4093 345.687 53.5704 345.687V345.687C47.7314 345.687 42.998 340.954 42.998 335.115V191.25C42.998 185.411 38.2646 180.678 32.4256 180.678V180.678C26.5867 180.678 21.8532 185.411 21.8532 191.25V335.115C21.8532 340.954 17.1198 345.687 11.2809 345.687V345.687C5.44191 345.687 0.708496 340.954 0.708496 335.115V13.5473C0.708496 7.70833 5.44191 2.97493 11.2809 2.97493V2.97493C17.1198 2.97493 21.8532 7.70835 21.8532 13.5473V151.066ZM131.087 334.713C131.363 340.69 126.592 345.687 120.608 345.687V345.687C114.946 345.687 110.306 341.193 110.124 335.534L108.058 271.033C107.918 266.657 104.33 263.183 99.9521 263.183V263.183C95.5804 263.183 91.9953 266.648 91.8466 271.017L89.6502 335.545C89.4577 341.201 84.8165 345.687 79.1568 345.687V345.687C73.1676 345.687 68.3917 340.685 68.6685 334.703L83.2858 18.8165C83.696 9.95144 91.0028 2.97493 99.8774 2.97493V2.97493C108.752 2.97493 116.059 9.95145 116.469 18.8165L131.087 334.713ZM105.164 167.985L99.8774 15.668L94.5912 167.985L92.3682 236.309C92.2288 240.594 95.6644 244.143 99.9515 244.143V244.143C104.245 244.143 107.683 240.583 107.534 236.292L105.164 167.985ZM199.046 334.566C199.046 340.708 194.067 345.687 187.925 345.687V345.687C182.229 345.687 177.453 341.383 176.864 335.718L151.471 91.8263V337.758C151.471 342.137 147.92 345.687 143.541 345.687V345.687C139.162 345.687 135.612 342.137 135.612 337.758V14.0962C135.612 7.9541 140.591 2.97493 146.733 2.97493V2.97493C152.429 2.97493 157.205 7.27892 157.795 12.9445L183.188 256.836V10.9042C183.188 6.525 186.738 2.97493 191.117 2.97493V2.97493C195.496 2.97493 199.046 6.52499 199.046 10.9042V334.566ZM271.784 132.026C271.784 137.865 267.051 142.599 261.212 142.599V142.599C255.373 142.599 250.639 137.865 250.639 132.026V34.7076C250.639 33.1209 250.584 31.4021 250.474 29.551C250.364 27.7 249.979 26.0472 249.318 24.5928C248.657 23.0062 247.611 21.684 246.179 20.6262C244.747 19.5685 242.71 19.0396 240.067 19.0396C237.424 19.0396 235.387 19.5685 233.955 20.6262C232.523 21.684 231.477 23.0062 230.816 24.5928C230.155 26.0472 229.77 27.7 229.66 29.551C229.55 31.4021 229.495 33.1209 229.495 34.7076V313.955C229.495 315.541 229.55 317.458 229.66 319.705C229.77 321.821 230.155 323.871 230.816 325.854C231.477 327.838 232.523 329.558 233.955 331.011C235.387 332.334 237.424 332.994 240.067 332.994C242.71 332.994 244.747 332.334 246.179 331.011C247.611 329.558 248.657 327.838 249.318 325.854C249.979 323.871 250.364 321.821 250.474 319.705C250.584 317.458 250.639 315.541 250.639 313.955V189.667C250.639 188.208 249.456 187.024 247.996 187.024V187.024C246.537 187.024 245.353 185.841 245.353 184.381V177.504C245.353 172.247 249.615 167.985 254.873 167.985H258.569C265.867 167.985 271.784 173.901 271.784 181.2V313.955C271.784 315.541 271.62 318.451 271.287 322.681C270.96 326.781 269.802 331.011 267.82 335.374C265.837 339.737 262.697 343.571 258.404 346.877C254.109 350.314 247.996 352.034 240.067 352.034C232.138 352.034 226.026 350.314 221.731 346.877C217.436 343.571 214.297 339.737 212.315 335.374C210.332 331.011 209.176 326.781 208.846 322.681C208.515 318.451 208.35 315.541 208.35 313.955V34.7076C208.35 33.6499 208.405 32.0633 208.515 29.9477C208.625 27.8322 208.956 25.5183 209.506 23.0062C210.057 20.3618 210.993 17.7174 212.315 15.073C213.636 12.2964 215.453 9.78422 217.766 7.5365C220.079 5.28878 223.052 3.50382 226.686 2.18162C230.321 0.727207 234.781 0 240.067 0C245.353 0 249.813 0.727207 253.448 2.18162C257.082 3.50382 260.055 5.28878 262.368 7.5365C264.68 9.78422 266.498 12.2964 267.82 15.073C269.141 17.7174 270.077 20.3618 270.627 23.0062C271.179 25.5183 271.509 27.8322 271.62 29.9477C271.729 32.0633 271.784 33.6499 271.784 34.7076V132.026ZM328.664 12.4947C328.664 17.7524 324.401 22.0145 319.144 22.0145H315.448C308.149 22.0145 302.233 27.9313 302.233 35.23V144.719C302.233 150.558 306.966 155.292 312.805 155.292H313.858C319.115 155.292 323.377 159.554 323.377 164.811V164.811C323.377 170.069 319.115 174.331 313.858 174.331H312.805C306.966 174.331 302.233 179.065 302.233 184.904V313.432C302.233 320.731 308.149 326.648 315.448 326.648H319.144C324.401 326.648 328.664 330.91 328.664 336.168V336.168C328.664 341.425 324.401 345.687 319.144 345.687H304.876C291.738 345.687 281.088 335.037 281.088 321.9V26.7627C281.088 13.6251 291.738 2.97493 304.876 2.97493H319.144C324.401 2.97493 328.664 7.23709 328.664 12.4947V12.4947ZM353.826 313.955C353.826 315.541 353.881 317.458 353.992 319.705C354.101 321.821 354.487 323.871 355.147 325.854C355.808 327.838 356.855 329.558 358.287 331.011C359.717 332.334 361.755 332.994 364.398 332.994C367.041 332.994 369.079 332.334 370.512 331.011C371.942 329.558 372.988 327.838 373.649 325.854C374.31 323.871 374.696 321.821 374.807 319.705C374.915 317.458 374.971 315.541 374.971 313.955V13.5473C374.971 7.70837 379.704 2.97493 385.543 2.97493V2.97493C391.382 2.97493 396.115 7.70835 396.115 13.5473V313.955C396.115 315.541 395.951 318.451 395.621 322.681C395.291 326.781 394.133 331.011 392.151 335.374C390.168 339.737 387.031 343.571 382.736 346.877C378.441 350.314 372.327 352.034 364.398 352.034C356.469 352.034 350.358 350.314 346.063 346.877C341.768 343.571 338.628 339.737 336.646 335.374C334.663 331.011 333.508 326.781 333.178 322.681C332.848 318.451 332.681 315.541 332.681 313.955V13.5473C332.681 7.70834 337.414 2.97493 343.253 2.97493V2.97493C349.092 2.97493 353.826 7.70834 353.826 13.5473V313.955ZM415.991 2.97493C421.83 2.97493 426.564 7.70835 426.564 13.5473V316.075C426.564 321.914 431.297 326.648 437.136 326.648H438.189C443.446 326.648 447.709 330.91 447.709 336.168V336.168C447.709 341.425 443.446 345.687 438.189 345.687H426.564C414.886 345.687 405.419 336.221 405.419 324.543V13.5473C405.419 7.70834 410.152 2.97493 415.991 2.97493V2.97493Z" fill="#F3AF31"/>
<path d="M114.298 363.58C118.67 364.511 122.567 365.171 125.989 365.551C129.508 365.749 132.455 365.857 134.829 365.87C137.663 365.989 140.135 365.821 142.243 365.359C144.91 364.821 148.211 363.77 152.147 362.204C156.082 360.637 160.242 359.038 164.625 357.409C169.007 355.784 173.348 354.33 177.647 353.054C181.947 351.781 185.737 351.173 189.019 351.234C192.301 351.291 195.807 352.005 199.537 353.365C203.253 354.562 206.803 356.46 210.185 359.066C213.554 361.505 216.533 364.678 219.121 368.588C221.821 372.483 223.685 377.174 224.711 382.664C225.724 387.987 225.878 393.856 225.174 400.265C224.456 406.508 223.005 412.769 220.821 419.041C218.623 425.146 215.718 430.925 212.109 436.37C208.499 441.818 204.365 446.399 199.706 450.112C195.981 452.844 191.878 455.118 187.398 456.929C183.574 458.481 179.051 459.786 173.83 460.848C168.706 461.725 163.162 461.633 157.198 460.579C156.827 465.579 156.763 470.198 157.006 474.429C157.347 478.478 157.764 482.091 158.256 485.264C158.904 488.932 159.634 492.243 160.448 495.203C161.373 498.147 162.509 501.575 163.855 505.485C165.032 508.738 166.385 512.732 167.913 517.471C169.539 522.027 171.438 527.14 173.61 532.815C171.599 533.091 169.652 533.444 167.767 533.877C165.868 534.136 164.144 534.46 162.594 534.845C160.821 535.26 159.16 535.66 157.611 536.045C155.838 536.46 153.856 537.074 151.664 537.888C149.794 538.485 147.435 539.324 144.587 540.397C141.852 541.458 138.74 542.741 135.25 544.246C137.17 538.86 138.623 533.968 139.609 529.563C140.692 524.98 141.434 521.036 141.835 517.738C142.305 513.918 142.524 510.475 142.492 507.407C142.391 504.861 142.015 500.391 141.364 493.993C140.825 487.584 140.145 480.169 139.324 471.748C138.503 463.327 137.591 454.493 136.587 445.244C135.584 435.995 134.574 427.346 133.558 419.292C132.528 411.071 131.541 404.041 130.598 398.198C129.766 392.338 129.105 388.503 128.614 386.695C127.983 384.564 127.002 382.309 125.672 379.931C124.594 377.861 123.097 375.509 121.181 372.87C119.361 370.049 117.067 366.952 114.298 363.58ZM153.171 408.655C153.201 410.355 153.294 412.134 153.45 413.99C153.748 417.534 154.299 422.066 155.102 427.589C156.125 430.348 157.273 432.581 158.546 434.28C159.93 435.968 161.335 437.224 162.761 438.051C164.298 438.864 165.807 439.339 167.287 439.477C168.768 439.614 170.234 439.581 171.686 439.381C175.023 438.751 178.442 437.087 181.943 434.384C186.588 430.5 189.668 425.469 191.182 419.288C192.696 413.104 193.246 406.886 192.833 400.626C192.42 394.369 191.212 388.734 189.208 383.72C187.317 378.688 185.232 375.391 182.953 373.83C181.067 372.894 178.735 372.703 175.956 373.256C173.513 373.765 170.52 375.117 166.976 377.312C163.432 379.506 159.163 383.165 154.171 388.291C153.867 391.406 153.648 394.166 153.511 396.574C153.375 398.982 153.273 401.131 153.205 403.016C153.152 405.071 153.141 406.952 153.171 408.655ZM221.992 337.985C224.618 338.304 227.006 338.488 229.156 338.531C231.293 338.41 233.094 338.33 234.56 338.3C236.25 338.237 237.709 338.121 238.938 337.953C240.599 337.553 242.532 337.03 244.738 336.386C246.608 335.786 248.862 335.048 251.501 334.172C254.25 333.281 257.377 332.169 260.88 330.831C259.318 332.411 258.036 333.955 257.032 335.459C256.014 336.792 255.227 338.183 254.671 339.625C254.017 341.249 253.523 342.77 253.19 344.179C252.815 346.449 252.584 351.09 252.496 358.099C252.322 364.098 252.222 372.987 252.195 384.764C252.28 396.529 252.434 412.467 252.656 432.574C256.166 425.945 259.581 420.867 262.9 417.34C266.316 413.624 269.364 410.899 272.043 409.166C275.154 407.2 278.106 406.026 280.898 405.64C284.403 405.672 288.064 406.872 291.879 409.249C295.792 411.441 299.468 414.174 302.908 417.456C306.46 420.722 309.584 424.302 312.284 428.197C315.097 432.075 317.139 435.549 318.415 438.613C319.269 440.716 319.846 443.537 320.143 447.081C320.427 450.455 320.516 454.198 320.41 458.309C320.303 462.42 320.036 466.636 319.609 470.961C319.182 475.29 318.732 479.361 318.263 483.181C317.906 486.983 317.567 490.36 317.25 493.305C316.919 496.08 316.748 498.067 316.735 499.265C316.724 501.825 317.041 504.254 317.687 506.556C318.192 508.535 319.047 510.634 320.251 512.859C321.44 514.914 323.104 516.562 325.242 517.803C323.65 517.681 321.955 517.659 320.152 517.736C318.449 517.631 316.807 517.6 315.229 517.647C313.429 517.724 311.633 517.888 309.848 518.132L303.816 518.963C301.917 519.225 299.746 519.61 297.303 520.116C294.845 520.455 292.172 520.91 289.282 521.481C290.775 520.42 292.023 519.138 293.026 517.634C294.016 515.963 294.844 514.398 295.513 512.941C296.279 511.3 296.926 509.589 297.454 507.809C297.787 506.397 298.133 503.789 298.491 499.987C298.835 496.014 299.081 491.541 299.228 486.573C299.361 481.434 299.305 476.067 299.06 470.468C298.927 464.854 298.536 459.53 297.887 454.501C297.336 449.287 296.443 444.715 295.209 440.79C294.087 436.847 292.61 434.066 290.778 432.44C285.27 427.398 280.456 425.243 276.338 425.981C272.317 426.535 268.669 429.514 265.394 434.915C264.21 436.956 263.082 438.987 262.009 441.013C261.034 442.855 259.975 445.048 258.834 447.594C257.678 449.973 256.641 452.421 255.722 454.935C255.935 457.466 256.225 460.243 256.592 463.265C256.959 466.286 257.319 469.223 257.672 472.074C258.053 475.266 258.49 478.447 258.983 481.624C259.618 486.486 260.357 491.246 261.201 495.909C261.877 499.914 262.699 504.322 263.669 509.137C264.625 513.785 265.712 517.986 266.932 521.744C265.452 521.606 263.937 521.73 262.387 522.116C260.824 522.33 259.316 522.538 257.864 522.738C256.202 523.138 254.59 523.444 253.026 523.659C251.588 524.03 250.102 524.492 248.566 525.044C247.254 525.564 245.831 526.102 244.295 526.655C242.746 527.04 241.266 527.585 239.857 528.29C240.871 524.226 241.669 520.275 242.25 516.44C242.818 512.438 243.26 508.963 243.577 506.018C243.964 502.553 244.246 499.183 244.423 495.919C244.545 493.34 244.364 488.503 243.88 481.401C243.494 474.116 242.966 465.826 242.297 456.53C241.615 447.067 240.834 437.107 239.954 426.645C239.075 416.184 238.182 406.238 237.276 396.807C236.37 387.373 235.451 379.138 234.521 372.097C233.702 365.042 233.011 360.187 232.449 357.536C231.775 354.896 230.934 352.282 229.925 349.69C229.056 347.42 227.971 345.267 226.67 343.227C225.354 341.02 223.795 339.27 221.992 337.985ZM339.262 412.191C339.736 411.101 339.917 409.198 339.8 406.482C339.783 403.584 339.96 400.316 340.332 396.681C340.816 393.031 341.789 389.142 343.25 385.016C344.711 380.89 347.309 376.862 351.047 372.932C354.673 369.019 358.3 366.472 361.929 365.287C365.558 364.106 369.098 363.875 372.548 364.593C375.999 365.311 379.281 366.737 382.398 368.867C385.627 370.983 388.598 373.389 391.309 376.087C393.157 377.88 394.743 380.65 396.077 384.39C397.393 387.963 398.53 392.073 399.486 396.721C400.441 401.368 401.25 406.292 401.914 411.492C402.674 416.506 403.316 421.452 403.84 426.329C404.347 431.039 404.773 435.418 405.113 439.467C405.552 443.33 406.044 446.504 406.592 448.991C407.352 452.64 408.402 455.738 409.746 458.283C411.075 460.661 412.489 462.683 413.986 464.356C415.468 465.859 416.922 467.024 418.347 467.851C419.771 468.679 421.008 469.274 422.057 469.644C422.768 470.058 423.412 470.308 423.985 470.402C425.159 470.921 425.94 470.815 426.331 470.078C425.86 472.533 425.416 474.64 424.997 476.405C424.581 478.17 424.255 479.666 424.019 480.893C423.685 482.302 423.387 483.454 423.124 484.343C422.873 485.404 422.56 486.384 422.184 487.289C421.921 488.179 421.552 489.17 421.079 490.259C420.605 491.346 420.139 492.522 419.68 493.779C418.156 493.137 416.676 492.316 415.236 491.319C413.907 490.306 412.698 489.366 411.607 488.491C410.28 487.479 409.063 486.451 407.959 485.409C406.855 484.368 405.792 483.148 404.771 481.754C403.875 480.512 402.916 479.194 401.895 477.797C400.986 476.388 400.173 474.791 399.46 473.012C398.974 475.299 397.618 478.644 395.388 483.047C393.27 487.434 390.344 491.593 386.607 495.52C382.855 499.28 378.357 502.205 373.108 504.295C367.971 506.367 362.085 506.238 355.45 503.913C352.543 502.948 349.756 501.369 347.086 499.177C344.402 496.814 342.009 493.903 339.91 490.436C337.923 486.957 336.339 482.909 335.161 478.291C334.079 473.49 333.68 468.083 333.967 462.073C334.252 456.06 335.23 450.888 336.899 446.563C338.569 442.237 340.693 438.616 343.273 435.702C345.853 432.786 348.819 430.413 352.167 428.585C355.516 426.761 359.012 425.34 362.655 424.325C365.545 423.758 368.47 423.608 371.432 423.883C373.946 424.22 376.622 425.13 379.459 426.618C382.28 427.935 384.791 430.236 386.986 433.515C386.123 424.589 385.304 417.534 384.529 412.352C383.852 406.981 383.28 402.878 382.816 400.042C382.085 396.731 381.495 394.421 381.047 393.118C380.389 392.014 379.661 390.747 378.865 389.324C378.177 387.882 377.339 386.63 376.345 385.574C375.339 384.347 374.13 383.403 372.718 382.746C371.308 382.086 369.716 381.967 367.943 382.381C366.057 382.811 364.614 383.777 363.61 385.281C362.605 386.785 361.848 388.51 361.334 390.46C360.916 392.225 360.737 394.124 360.797 396.165C360.856 398.206 361.061 399.97 361.411 401.456C361.719 402.44 362.146 403.489 362.692 404.607C363.225 405.558 363.931 406.571 364.812 407.642C365.693 408.717 366.839 409.584 368.251 410.241C365.725 411.102 363.471 411.84 361.487 412.455C359.492 412.899 357.781 413.393 356.359 413.928C354.711 414.498 353.281 414.949 352.066 415.287C350.852 415.626 349.427 416.164 347.794 416.901C346.372 417.439 344.619 418.108 342.54 418.904C340.459 419.704 338.06 420.718 335.338 421.946C335.909 420.672 336.43 419.491 336.904 418.402C337.363 417.145 337.781 416.063 338.157 415.158C338.518 414.083 338.886 413.095 339.262 412.191ZM366.927 438.842C364.931 439.286 362.983 440.322 361.087 441.949C359.176 443.409 357.538 445.426 356.172 448.004C354.792 450.412 353.671 453.213 352.811 456.401C352.047 459.408 351.813 462.684 352.112 466.228C352.409 469.769 353.229 472.815 354.573 475.36C356.015 477.72 357.757 479.615 359.797 481.041C361.95 482.449 364.158 483.171 366.419 483.199C368.793 483.213 371.054 482.562 373.203 481.239C375.227 479.768 377.08 477.635 378.767 474.842C380.438 471.879 381.816 468.788 382.901 465.566C383.974 462.178 384.659 458.924 384.963 455.812C385.252 452.529 385.087 449.907 384.472 447.943C383.209 443.68 380.944 440.921 377.674 439.662C374.389 438.24 370.809 437.965 366.927 438.842Z" fill="#F3AF31"/>
<circle r="14.5" transform="matrix(-1 0 0 1 99.5 529.5)" fill="#F3AF31"/>
</svg>
